<svg width="256" height="256" viewBox="0 0 256 256" fill="none" xmlns="http://www.w3.org/2000/svg">
  <rect width="256" height="256" rx="64" fill="url(#bg)"/>
  <rect x="42" y="42" width="172" height="172" rx="40" fill="white" fill-opacity="0.08" stroke="white" stroke-opacity="0.18"/>
  <path d="M86 78H124C160.451 78 190 107.549 190 144C190 180.451 160.451 210 124 210H86V78Z" fill="white" fill-opacity="0.16"/>
  <path d="M102 98H124C149.405 98 170 118.595 170 144C170 169.405 149.405 190 124 190H102V98Z" fill="white"/>
  <path d="M96 82H140C170.928 82 196 107.072 196 138V138C196 168.928 170.928 194 140 194H96V82Z" stroke="url(#stroke)" stroke-width="8"/>
  <circle cx="170" cy="90" r="16" fill="url(#accent)"/>
  <defs>
    <linearGradient id="bg" x1="24" y1="18" x2="222" y2="232" gradientUnits="userSpaceOnUse">
      <stop stop-color="#3E1E68"/>
      <stop offset="1" stop-color="#E45A92"/>
    </linearGradient>
    <linearGradient id="stroke" x1="96" y1="82" x2="196" y2="194" gradientUnits="userSpaceOnUse">
      <stop stop-color="#FFACAC"/>
      <stop offset="1" stop-color="white"/>
    </linearGradient>
    <linearGradient id="accent" x1="154" y1="74" x2="186" y2="106" gradientUnits="userSpaceOnUse">
      <stop stop-color="#FFACAC"/>
      <stop offset="1" stop-color="#E45A92"/>
    </linearGradient>
  </defs>
</svg>
